<svg class="icon__grupo-zap" viewBox="0 0 143 24" version="1.1" xmlns="http://www.w3.org/2000/svg" xmlns:xlink="http://www.w3.org/1999/xlink">
    <style>
        .icon-grupo-zap {
            --grupo-color: #979A9C;
            --zap-color: #C8D419;
            --zap-symbol-effect-start-color: #C8D419;
            --zap-symbol-effect-end-color: #00A591;
        };
    </style>

    <g class="icon-grupo-zap">
    <defs>
        <path id="path-1" d="M0.353784173,3.50417266 L0.326676259,3.55838849 C0.103251799,4.00368345 0.0447194245,4.26802878 0.0443741007,4.61628777 C0.0435107914,5.84615827 1.09692086,6.90129496 2.36184173,6.90233094 C3.15798561,6.90284892 3.78871942,6.60017266 4.24713669,5.89692086 C4.81001439,5.09576978 5.95821583,3.16143885 9.13899281,3.18751079 C11.9378417,3.18992806 13.4025324,4.85197122 13.7975827,5.53001439 C13.7948201,5.52517986 10.8353957,0.160230216 6.38745324,0.159366906 C4.58745324,0.159021583 2.54451799,1.03700719 0.353784173,3.50417266"></path>
        <linearGradient x1="6.07174365%" y1="49.9991193%" x2="99.814676%" y2="49.9991193%" id="linearGradient-3">
            <stop offset="0%" style="stop-color:var(--zap-symbol-effect-start-color); stop-opacity:1"></stop>
            <stop offset="100%" stop-opacity="0" style="stop-color:var(--zap-symbol-effect-end-color); stop-opacity:1"></stop>
        </linearGradient>
        <polygon id="path-4" points="0.123642366 0.120776978 14.857036 0.120776978 14.857036 21.9246917 0.123642366 21.9246917"></polygon>
        <polygon id="path-6" points="6.90647482e-05 0.0949985612 14.3945439 0.0949985612 14.3945439 23.4820144 6.90647482e-05 23.4820144"></polygon>
    </defs>
    
    <g id="Logos-/-8.2-GrupoZAP-negative" stroke="none" stroke-width="1" fill="var(--zap-color)" fill-rule="evenodd">
        <g id="Group">
            <path id="Fill-1" fill="var(--zap-color)" d="M123.876069,14.0468029 L117.350486,1.65019856 C116.894314,0.701248921 116.086601,0.173421583 115.172875,0.172730935 C114.224271,0.171867626 113.450745,0.698141007 112.993364,1.6464 L106.446717,14.0322993 C106.418918,14.0842705 106.392673,14.1346878 106.368328,14.1835511 L106.368328,14.1837237 C106.364357,14.1911482 106.361594,14.1977094 106.357968,14.2051338 L106.368328,14.1845871 C113.972702,5.6209036 119.808155,16.203695 119.812127,16.2104288 C119.811781,16.2099108 119.811263,16.2092201 119.810918,16.2087022 C119.810918,16.2087022 119.811263,16.2090475 119.811263,16.2092201 C119.811436,16.2093928 119.812127,16.2107741 119.812127,16.2107741 C119.885163,16.3411338 119.922976,16.4148604 119.922976,16.4148604 C120.379321,17.2160115 121.050112,17.5934504 121.940357,17.5943137 C123.170227,17.5953496 124.225364,16.5421122 124.2264,15.3120691 C124.226745,14.9256518 124.121594,14.5739396 123.876069,14.0468029"></path>
            <g id="Group-5" transform="translate(106.014388, 10.680518)">
                <path id="path-1" d="M0.353784173,3.50417266 L0.326676259,3.55838849 C0.103251799,4.00368345 0.0447194245,4.26802878 0.0443741007,4.61628777 C0.0435107914,5.84615827 1.09692086,6.90129496 2.36184173,6.90233094 C3.15798561,6.90284892 3.78871942,6.60017266 4.24713669,5.89692086 C4.81001439,5.09576978 5.95821583,3.16143885 9.13899281,3.18751079 C11.9378417,3.18992806 13.4025324,4.85197122 13.7975827,5.53001439 C13.7948201,5.52517986 10.8353957,0.160230216 6.38745324,0.159366906 C4.58745324,0.159021583 2.54451799,1.03700719 0.353784173,3.50417266"></path>
                <g id="Clip-4"></g>
                <path id="Fill-3" fill="url(#linearGradient-3)" d="M0.353784173,3.50417266 L0.326676259,3.55838849 C0.103251799,4.00368345 0.0447194245,4.26802878 0.0443741007,4.61628777 C0.0435107914,5.84615827 1.09692086,6.90129496 2.36184173,6.90233094 C3.15798561,6.90284892 3.78871942,6.60017266 4.24713669,5.89692086 C4.81001439,5.09576978 5.95821583,3.16143885 9.13899281,3.18751079 C11.9378417,3.18992806 13.4025324,4.85197122 13.7975827,5.53001439 C13.7948201,5.52517986 10.8353957,0.160230216 6.38745324,0.159366906 C4.58745324,0.159021583 2.54451799,1.03700719 0.353784173,3.50417266"></path>
            </g>
            <g id="Group-22" transform="translate(0.000000, 0.148144)">
                <path id="Fill-6" fill="var(--zap-color)" d="M103.890613,15.2512921 C103.889577,16.4138245 102.980512,17.3215079 101.781548,17.3204719 L92.009059,17.3123568 C90.846354,17.3113209 89.9386705,16.4022561 89.9397065,15.2395511 C89.9402245,14.6217669 90.1577784,14.2988892 90.7769439,13.4597525 L97.278354,4.25981007 L92.1793036,4.25549353 C90.9803396,4.25445755 90.0726561,3.3816518 90.0736921,2.18268777 C90.0745554,0.983551079 90.9837928,0.120069065 92.1827568,0.121105036 L101.750814,0.121105036 C102.949778,0.122141007 103.857462,0.995292086 103.856426,2.15782446 C103.855908,2.84829928 103.546843,3.26130647 103.164742,3.82867338 L96.4160806,13.1741698 L101.785001,13.1784863 C102.983965,13.1795223 103.891649,14.0523281 103.890613,15.2512921"></path>
                <g id="Group-10" transform="translate(127.079137, 0.000000)">
                    <mask id="mask-5" fill="#ffffff">
                        <use xlink:href="#path-4"></use>
                    </mask>
                    <g id="Clip-9"></g>
                    <path id="Fill-8" fill="var(--zap-color)" mask="url(#mask-5)" d="M6.80980144,0.120776978 L2.14758561,0.120776978 C0.999556835,0.194158273 0.124679137,1.10097842 0.123643165,2.27335252 L0.123643165,19.5816691 C0.122607194,20.9242878 1.12818993,21.923482 2.48203165,21.9246906 C3.80065036,21.9258993 4.80830504,20.9284317 4.80934101,19.5856403 L4.80934101,17.3204892 L4.80830504,17.3203165 L4.80934101,17.3203165 L4.80934101,17.3204892 C4.80968633,16.9157698 5.14067914,16.5880576 5.54557122,16.5884029 L6.79581583,16.5884029 C11.3951827,16.5676835 14.853082,12.9172662 14.8570532,8.3458705 C14.8610245,3.76428777 11.3925928,0.132863309 6.80980144,0.120776978"></path>
                </g>
                <path id="Fill-11" fill="var(--grupo-color)" d="M49.2532489,13.8435281 C49.4124432,13.9578302 49.6294791,14.1116719 49.9028029,14.3050532 C50.1764719,14.4989525 50.5183424,14.687154 50.9287597,14.8691396 C51.3390043,15.0518158 51.8117525,15.2111827 52.347695,15.3479309 C52.8829468,15.4846791 53.4931338,15.5528806 54.1768748,15.5528806 C55.0427741,15.5528806 55.863436,15.405082 56.6385151,15.1084489 C57.4134216,14.8125065 58.0859396,14.3792978 58.6560691,13.809341 C59.2253353,13.2397295 59.6758101,12.5387223 60.0064576,11.7064921 C60.3365871,10.8747799 60.5021698,9.91149928 60.5021698,8.81734101 C60.5021698,7.90585899 60.3997813,7.02804604 60.1944863,6.18459281 C59.9895367,5.34148489 59.6644144,4.60059281 59.2201554,3.96208921 C58.7755511,3.32427626 58.1997237,2.81665036 57.493364,2.44059281 C56.786659,2.06453525 55.9205871,1.87650647 54.8949755,1.87650647 C54.2110619,1.87650647 53.5898245,1.97906763 53.031436,2.18418993 C52.4727022,2.38931223 51.9768173,2.66867914 51.5441266,3.02194532 C51.110918,3.37555683 50.7346878,3.78580144 50.4157813,4.2528518 C50.0963568,4.72024748 49.8456518,5.20473669 49.6634935,5.7059741 C49.5037813,6.11621871 49.3953496,6.60657842 49.3387165,7.17618993 C49.2815655,7.74614676 49.2532489,8.32749928 49.2532489,8.9197295 L49.2532489,13.8435281 Z M47.748846,4.16721151 L47.748846,3.05595971 L47.748846,2.2354705 C47.748846,1.99616115 47.7429755,1.76859281 47.7317525,1.5517295 C47.7200115,1.33521151 47.702918,1.10177266 47.6804719,0.850722302 L49.1165007,0.850722302 C49.1389468,1.10177266 49.1560403,1.32398849 49.1677813,1.51754245 C49.1790043,1.71144173 49.1902273,1.91069353 49.2019683,2.11581583 C49.2131914,2.32093813 49.2244144,2.55489496 49.2361554,2.81665036 C49.2475511,3.0790964 49.2532489,3.39265036 49.2532489,3.75696691 C49.3670331,3.5518446 49.5491914,3.26712518 49.8004144,2.90211799 C50.0509468,2.53780144 50.4099108,2.17296691 50.8773065,1.80813237 C51.3441842,1.44381583 51.9201842,1.12421871 52.6039252,0.850722302 C53.2878388,0.577225899 54.1085007,0.440477698 55.0657381,0.440477698 C56.2736806,0.440477698 57.3224288,0.657341007 58.2112921,1.09003165 C59.1003281,1.52341295 59.8355223,2.11581583 60.4167022,2.8681036 C60.997882,3.62021871 61.4307453,4.50390216 61.7161554,5.51777266 C62.0007022,6.53233381 62.1433209,7.63236259 62.1433209,8.81734101 C62.1433209,10.0482475 61.9435511,11.1651971 61.5450475,12.1680173 C61.1460259,13.1713554 60.5876374,14.0315568 59.8697094,14.7494849 C59.1517813,15.4674129 58.3079827,16.0204489 57.3395223,16.4079022 C56.3703712,16.7951827 55.3164432,16.989082 54.1768748,16.989082 C53.0597525,16.989082 52.1023424,16.8352403 51.3046446,16.5275568 C50.5066014,16.2198734 49.8228604,15.9066647 49.2532489,15.5872403 L49.2532489,23.4169381 L47.748846,23.4169381 L47.748846,4.16721151 Z"></path>
                <g id="Group-15" transform="translate(0.000000, 0.345324)">
                    <mask id="mask-7" fill="#ffffff">
                        <use xlink:href="#path-6"></use>
                    </mask>
                    <g id="Clip-14"></g>
                    <path id="Fill-13" fill="var(--grupo-color)" mask="url(#mask-7)" d="M12.890141,2.24912806 C12.5482705,2.11237986 12.1722129,1.99859568 11.7617957,1.90725755 C11.3969612,1.81643741 10.9584,1.73096978 10.4454216,1.65085468 C9.93261583,1.57125755 9.34539281,1.5312 8.68461583,1.5312 C7.72720576,1.5312 6.82642878,1.68486906 5.98349353,1.99272518 C5.14004029,2.30040863 4.39345036,2.75088345 3.7438964,3.34328633 C3.09434245,3.93620719 2.58136403,4.67140144 2.20530647,5.54852374 C1.82924892,6.42633669 1.64122014,7.42380432 1.64122014,8.54040863 C1.64122014,9.42927194 1.74378129,10.2728978 1.9489036,11.070423 C2.1540259,11.8686388 2.47897554,12.5748259 2.92323453,13.1903655 C3.36783885,13.8057324 3.9431482,14.2962647 4.64985324,14.6605813 C5.35621295,15.0255885 6.22280288,15.2075741 7.24858705,15.2075741 C8.25140719,15.2075741 9.10591079,15.0195453 9.81278849,14.6436604 C10.5193209,14.2674302 11.1003281,13.8116029 11.5566734,13.2758331 C12.0123281,12.7405813 12.3483281,12.1818475 12.565364,11.600495 C12.7817094,11.0191424 12.890141,10.5353439 12.890141,10.1473727 L12.890141,2.24912806 Z M2.18821295,20.5074302 C2.5525295,20.8032 3.12265899,21.1281496 3.89773813,21.4817612 C4.67247194,21.8348547 5.69808345,22.0118331 6.97509065,22.0118331 C8.11448633,22.0118331 9.06067338,21.8579914 9.81278849,21.5503079 C10.5650763,21.2422791 11.1688748,20.8204662 11.6248748,20.2852144 C12.0807022,19.7492719 12.3997813,19.1168115 12.5824576,18.3874878 C12.7646158,17.6578187 12.8557813,16.8601209 12.8557813,15.9940489 L12.8557813,13.6007827 C12.4909468,14.1937036 12.0235511,14.7065094 11.4542849,15.1393727 C10.9753209,15.5271712 10.3770475,15.8745669 9.65894676,16.1822504 C8.94101871,16.4899338 8.08047194,16.6437755 7.0776518,16.6437755 C5.86901871,16.6437755 4.82096115,16.4327827 3.93192518,16.0113151 C3.04306187,15.5896748 2.30786763,15.0143655 1.72668777,14.2846964 C1.14550791,13.5553727 0.712126619,12.6946532 0.427407194,11.7030561 C0.142169784,10.711459 6.90647482e-05,9.64613525 6.90647482e-05,8.50622158 C6.90647482e-05,7.22990504 0.22211223,6.07324317 0.666716547,5.03571799 C1.1111482,3.99871079 1.72668777,3.11571799 2.51298993,2.38587626 C3.29946475,1.65655252 4.22251511,1.09246619 5.28265899,0.693444604 C6.34263022,0.294941007 7.4878964,0.0949985612 8.71880288,0.0949985612 C9.85819856,0.0949985612 10.9352633,0.209473381 11.9498245,0.437041727 C12.9638676,0.665128058 13.7790043,0.915660432 14.3945439,1.18915683 L14.3945439,15.8914878 C14.3945439,17.0540201 14.257623,18.1081209 13.9842993,19.0543079 C13.7106302,19.9998043 13.2715511,20.7978475 12.6679252,21.4475741 C12.0636086,22.0973007 11.2885295,22.5983655 10.3428604,22.9521496 C9.39684604,23.3052432 8.25140719,23.4820489 6.90671655,23.4820489 C6.15442878,23.4820489 5.47051511,23.4190273 4.8551482,23.2938475 C4.23960863,23.168495 3.70383885,23.0087827 3.24818417,22.8152288 C2.79201151,22.6213295 2.39868777,22.4220777 2.06855827,22.2169554 C1.73791079,22.0118331 1.48133525,21.8289842 1.29917698,21.6697899 L2.18821295,20.5074302 Z"></path>
                </g>
                <path id="Fill-16" fill="var(--grupo-color)" d="M30.011482,0.850722302 L31.5500719,0.850722302 L31.5500719,9.56945612 C31.5500719,10.7319885 31.6467626,11.7011396 31.8408345,12.4757007 C32.0340432,13.2509525 32.3246331,13.8664921 32.7126043,14.3219741 C33.1000576,14.7783194 33.5786763,15.0973986 34.1486331,15.2793842 C34.7180719,15.4622331 35.3795396,15.5528806 36.1316547,15.5528806 C37.1115108,15.5528806 37.9663597,15.3479309 38.6960288,14.9375137 C39.4253525,14.5272691 40.0236259,14.0032403 40.4910216,13.3649094 C40.9578993,12.7269237 41.3059856,12.020046 41.5340719,11.2447942 C41.7616403,10.4702331 41.8759424,9.70620432 41.8759424,8.95408921 L41.8759424,0.850722302 L43.4829065,0.850722302 L43.4829065,16.5788374 L42.0470504,16.5788374 C42.0239137,16.328305 42.0068201,16.100046 41.9955971,15.8949237 C41.9838561,15.6898014 41.9726331,15.4674129 41.9614101,15.2282763 C41.9496691,14.9889669 41.9443165,14.7211683 41.9443165,14.4247079 L41.9443165,13.2963626 C41.7616403,13.6384058 41.5109353,14.0262043 41.1920288,14.458895 C40.8724317,14.8921036 40.4741007,15.2966504 39.9953094,15.6727079 C39.5166906,16.0487655 38.9408633,16.3624921 38.2686906,16.6130245 C37.5961727,16.8635568 36.8155683,16.989082 35.9265324,16.989082 C34.8095827,16.989082 33.8751367,16.8293698 33.1230216,16.5102906 C32.3707338,16.1915568 31.7605468,15.729859 31.2936691,15.1257151 C30.8261007,14.5219165 30.4956259,13.7979453 30.3020719,12.9544921 C30.1081727,12.1115568 30.011482,11.1541468 30.011482,10.0824345 L30.011482,0.850722302 Z"></path>
                <path id="Fill-18" fill="var(--grupo-color)" d="M72.5292259,15.5871712 C73.4407079,15.5871712 74.2953842,15.4050129 75.0937727,15.0401784 C75.8912978,14.6758619 76.581082,14.1853295 77.1622619,13.5697899 C77.7434417,12.954423 78.1992691,12.2309698 78.5299165,11.3987396 C78.860046,10.5670273 79.0256288,9.6719482 79.0256288,8.71471079 C79.0256288,7.80322878 78.8546935,6.93145899 78.5126504,6.09905612 C78.1709525,5.26717122 77.7092547,4.53214964 77.1280748,3.89381871 C76.5467223,3.25583309 75.8569381,2.75425036 75.0592403,2.38924317 C74.2613698,2.02492662 73.4180892,1.84225036 72.5292259,1.84225036 C71.5942619,1.84225036 70.7342331,2.02492662 69.9479309,2.38924317 C69.1614561,2.75425036 68.4777151,3.24409209 67.8963626,3.85963165 C67.3151827,4.47499856 66.8588374,5.19879712 66.5287079,6.03068201 C66.1980604,6.86308489 66.032823,7.75730072 66.032823,8.71471079 C66.032823,9.64967482 66.2039309,10.5267971 66.5458014,11.347459 C66.8876719,12.1679482 67.3493698,12.8977899 67.9305496,13.5356029 C68.5117295,14.1741065 69.2009957,14.6758619 69.9992115,15.0401784 C70.7967367,15.4050129 71.6403626,15.5871712 72.5292259,15.5871712 M72.5292259,16.9890129 C71.4121036,16.9890129 70.3635281,16.7721496 69.3838446,16.3392863 C68.4032978,15.9067683 67.5427511,15.3136748 66.8022043,14.5615597 C66.0613122,13.8092719 65.4799597,12.931977 65.0584921,11.9288115 C64.6365065,10.9259914 64.425859,9.85479712 64.425859,8.71471079 C64.425859,7.57531511 64.6365065,6.50412086 65.0584921,5.50078273 C65.4799597,4.49796259 66.0613122,3.62014964 66.8022043,2.86803453 C67.5427511,2.11574676 68.4032978,1.52334388 69.3838446,1.09013525 C70.3635281,0.657271942 71.4121036,0.440408633 72.5292259,0.440408633 C73.6458302,0.440408633 74.6945784,0.657271942 75.6749525,1.09013525 C76.6548086,1.52334388 77.5153554,2.11574676 78.2564201,2.86803453 C78.9967942,3.62014964 79.5779741,4.49796259 80.0001324,5.50078273 C80.4217727,6.50412086 80.6327655,7.57531511 80.6327655,8.71471079 C80.6327655,9.85479712 80.4217727,10.9259914 80.0001324,11.9288115 C79.5779741,12.931977 78.9967942,13.8092719 78.2564201,14.5615597 C77.5153554,15.3136748 76.6548086,15.9067683 75.6749525,16.3392863 C74.6945784,16.7721496 73.6458302,16.9890129 72.5292259,16.9890129"></path>
                <path id="Fill-20" fill="var(--grupo-color)" d="M25.9429813,0.731084892 C25.0993554,0.731084892 24.3584633,0.805329496 23.7204777,1.05586187 C23.0821468,1.30691223 22.5237583,1.61476835 22.0451396,1.97908489 C21.5665209,2.34391942 21.1733698,2.7370705 20.8656863,3.15871079 C20.5578302,3.5806964 20.3126504,3.96210647 20.1304921,4.30397698 L20.1304921,3.17580432 C20.1304921,2.85689784 20.1246216,2.56613525 20.1133986,2.30386187 C20.1016576,2.04210647 20.0904345,1.79675396 20.0792115,1.56884029 C20.0674705,1.34109928 20.050377,1.10178993 20.0279309,0.850739568 L18.5917295,0.850739568 C18.6143482,1.10178993 18.6312691,1.33522878 18.6431827,1.5515741 C18.6544058,1.76861007 18.6601036,1.99617842 18.6601036,2.23548777 L18.6601036,3.05597698 L18.6601036,4.16722878 L18.6601036,16.5788547 L20.1988662,16.5788547 L20.1988662,8.54386187 C20.1988662,7.76912806 20.3295712,6.99991942 20.5920173,6.23589065 C20.5932259,6.23261007 20.5944345,6.22950216 20.5954705,6.22639424 C21.0217727,5.13206331 21.7060317,4.25753094 22.1445928,3.76855252 C22.1551252,3.7573295 23.3637583,2.45355971 25.0720748,2.24930072 C25.1407942,2.24187626 25.2102043,2.23617842 25.280305,2.23134388 C25.328823,2.22823597 25.3775137,2.22547338 25.426895,2.22426475 C25.4961324,2.22150216 25.5650245,2.21839424 25.6352978,2.21839424 C25.8174561,2.21839424 26.0167079,2.23013525 26.2335712,2.25258129 C26.4500892,2.27554532 26.638118,2.29298417 26.7976576,2.36135827 L26.7976576,0.827948201 C26.5381468,0.76596259 26.2553266,0.731084892 25.9429813,0.731084892"></path>
            </g>
        </g>
    </g>
    </g>
</svg>
